<?xml version="1.0" standalone="no"?>
<!DOCTYPE svg PUBLIC "-//W3C//DTD SVG 20010904//EN"
 "http://www.w3.org/TR/2001/REC-SVG-20010904/DTD/svg10.dtd">
<svg version="1.0" xmlns="http://www.w3.org/2000/svg"
 width="235.000000pt" height="235.000000pt" viewBox="0 0 235.000000 235.000000"
 preserveAspectRatio="xMidYMid meet">
<metadata>
Created by potrace 1.14, written by Peter Selinger 2001-2017
</metadata>
<g transform="translate(0.000000,235.000000) scale(0.100000,-0.100000)"
fill="#000000" stroke="none">
<path d="M360 2140 c0 -6 -27 -10 -60 -10 -33 0 -60 -4 -60 -10 0 -6 -27 -10
-60 -10 -33 0 -60 -4 -60 -10 0 -5 -9 -10 -20 -10 -11 0 -20 -4 -20 -10 0 -5
-13 -10 -29 -10 -23 0 -30 -5 -34 -26 -8 -45 6 -1434 15 -1434 4 0 8 -36 8
-80 0 -47 4 -80 10 -80 6 0 10 -16 10 -35 0 -30 10 -45 65 -100 35 -36 71 -65
80 -65 8 0 15 -4 15 -10 0 -6 110 -10 310 -10 200 0 310 4 310 10 0 7 217 10
630 10 413 0 630 3 630 10 0 6 23 10 50 10 28 0 50 5 50 10 0 6 18 10 40 10
22 0 40 5 40 10 0 6 9 10 20 10 20 0 20 7 20 750 0 493 -3 750 -10 750 -6 0
-10 32 -10 75 0 73 -1 77 -35 110 -19 19 -41 35 -50 35 -8 0 -15 9 -15 20 0
13 -7 20 -18 20 -10 0 -24 9 -32 20 -8 11 -21 20 -30 20 -9 0 -22 9 -30 20
-14 20 -26 20 -872 20 -565 0 -858 -3 -858 -10z m504 -42 c5 -10 7 -10 12 0 9
19 510 17 530 -2 8 -8 14 -17 14 -20 0 -3 -117 -6 -259 -6 -198 0 -261 3 -265
13 -5 10 -7 10 -12 0 -4 -10 -51 -13 -185 -13 -113 0 -179 -4 -179 -10 0 -5
-18 -10 -40 -10 -22 0 -40 -4 -40 -10 0 -5 -9 -10 -20 -10 -11 0 -20 5 -20 10
0 6 -7 10 -16 10 -15 0 -44 23 -44 34 0 3 14 6 30 6 17 0 30 5 30 10 0 16 457
13 464 -2z m1016 2 c0 -6 -47 -10 -120 -10 -73 0 -120 -4 -120 -10 0 -6 -40
-10 -100 -10 -93 0 -100 1 -100 20 0 19 7 20 220 20 140 0 220 -4 220 -10z
m160 0 c0 -6 -27 -10 -60 -10 -33 0 -60 4 -60 10 0 6 27 10 60 10 33 0 60 -4
60 -10z m-1704 -35 c22 -22 23 -27 10 -40 -8 -9 -33 -15 -59 -15 -27 0 -48 -5
-51 -12 -5 -10 -7 -10 -12 0 -7 14 -44 16 -44 2 0 -15 -70 -12 -86 4 -19 20
-18 26 6 26 11 0 20 5 20 10 0 6 9 10 20 10 11 0 20 5 20 10 0 6 27 10 60 10
33 0 60 4 60 10 0 18 31 10 56 -15z m1409 -30 c19 -19 35 -37 35 -40 0 -3
-116 -5 -258 -5 -246 0 -258 1 -272 20 -8 11 -18 20 -22 20 -4 0 -8 -9 -8 -20
0 -19 -7 -20 -255 -20 l-256 0 -24 25 c-14 13 -25 27 -25 30 0 3 117 5 260 5
167 0 260 -4 260 -10 0 -5 9 -10 20 -10 11 0 20 5 20 10 0 6 77 10 210 10 133
0 210 4 210 10 0 6 16 10 35 10 27 0 44 -8 70 -35z m365 15 c8 -11 22 -20 32
-20 10 0 18 -4 18 -10 0 -6 -60 -10 -159 -10 -116 0 -160 -3 -163 -12 -4 -11
-78 53 -78 67 0 3 76 5 168 5 156 0 169 -1 182 -20z m-1475 -25 c14 -13 25
-27 25 -30 0 -3 -54 -5 -120 -5 -73 0 -120 -4 -120 -10 0 -6 -30 -10 -70 -10
-40 0 -70 -4 -70 -10 0 -5 -13 -10 -29 -10 -16 0 -32 -6 -35 -12 -5 -10 -7
-10 -12 0 -3 6 -14 12 -25 12 -10 0 -19 5 -19 10 0 6 18 10 40 10 22 0 40 5
40 10 0 6 27 10 60 10 33 0 60 4 60 10 0 6 23 10 50 10 28 0 50 5 50 10 0 6
14 10 30 10 17 0 30 5 30 10 0 6 20 10 45 10 35 0 52 -6 70 -25z m-565 -75 c8
-11 22 -20 32 -20 16 0 18 -12 18 -120 0 -113 -1 -120 -20 -120 -19 0 -20 -7
-20 -110 0 -67 -4 -110 -10 -110 -16 0 -13 217 3 223 8 3 5 11 -10 24 -21 19
-23 29 -23 137 0 64 4 116 8 116 4 0 14 -9 22 -20z m2130 10 c0 -5 7 -10 16
-10 31 0 44 -27 44 -94 l0 -66 -80 0 c-47 0 -80 -4 -80 -10 0 -6 -53 -10 -140
-10 l-140 0 0 90 0 90 30 0 c17 0 30 5 30 10 0 6 60 10 160 10 100 0 160 -4
160 -10z m-1514 -24 c10 -11 14 -43 14 -130 l0 -116 -170 0 c-107 0 -170 -4
-170 -10 0 -6 -33 -10 -80 -10 l-80 0 0 110 0 110 30 0 c17 0 30 5 30 10 0 6
14 10 30 10 17 0 30 5 30 10 0 6 30 10 70 10 40 0 70 4 70 10 0 17 209 13 226
-4z m574 -6 c0 -11 5 -20 10 -20 6 0 10 -37 10 -90 l0 -90 -110 0 c-67 0 -110
-4 -110 -10 0 -6 -63 -10 -170 -10 l-170 0 0 120 0 120 270 0 c263 0 270 0
270 -20z m540 -70 l0 -90 -30 0 c-16 0 -30 -4 -30 -10 0 -6 -63 -10 -170 -10
-107 0 -170 -4 -170 -10 0 -5 -22 -10 -50 -10 l-50 0 0 90 c0 53 -4 90 -10 90
-5 0 -10 9 -10 20 0 19 7 20 260 20 l260 0 0 -90z m-1640 -70 c0 -73 -4 -120
-10 -120 -6 0 -10 47 -10 120 0 73 4 120 10 120 6 0 10 -47 10 -120z m1980
-90 c0 -40 4 -70 10 -70 6 0 10 -27 10 -60 l0 -60 -80 0 c-47 0 -80 -4 -80
-10 0 -6 -69 -10 -186 -10 -147 0 -188 3 -200 14 -10 11 -14 42 -14 120 l0
106 70 0 c40 0 70 4 70 10 0 6 67 10 180 10 113 0 180 4 180 10 0 6 9 10 20
10 18 0 20 -7 20 -70z m140 -60 l0 -130 -50 0 -50 0 0 70 c0 40 -4 70 -10 70
-6 0 -10 27 -10 60 l0 60 60 0 60 0 0 -130z m-700 -30 l0 -120 -50 0 c-27 0
-50 -4 -50 -10 0 -6 -83 -10 -230 -10 l-230 0 0 110 c0 103 1 110 20 110 11 0
20 5 20 10 0 6 63 10 170 10 107 0 170 4 170 10 0 6 37 10 90 10 l90 0 0 -120z
m-580 -30 c0 -103 -1 -110 -20 -110 -11 0 -20 -4 -20 -10 0 -6 -87 -10 -240
-10 l-240 0 0 110 0 110 110 0 c67 0 110 4 110 10 0 6 57 10 150 10 l150 0 0
-110z m-880 80 c0 -5 9 -10 20 -10 19 0 20 -7 20 -110 0 -67 -4 -110 -10 -110
-5 0 -10 5 -10 10 0 6 -9 10 -20 10 -19 0 -20 7 -20 110 0 67 4 110 10 110 6
0 10 -4 10 -10z m340 -96 c0 -78 -4 -109 -14 -120 -11 -10 -43 -14 -130 -14
l-116 0 0 110 0 110 80 0 c47 0 80 4 80 10 0 6 23 10 50 10 l50 0 0 -106z
m1820 -194 l0 -120 -180 0 c-113 0 -180 -4 -180 -10 0 -5 -13 -10 -30 -10
l-30 0 0 120 0 120 70 0 c40 0 70 4 70 10 0 6 53 10 140 10 l140 0 0 -120z
m-440 -20 l0 -120 -266 0 c-217 0 -268 3 -280 14 -10 11 -14 41 -14 110 l0 96
100 0 c60 0 100 4 100 10 0 6 67 10 180 10 l180 0 0 -120z m-1734 86 c10 -11
14 -41 14 -110 0 -89 -1 -96 -20 -96 -19 0 -20 -7 -20 -120 0 -73 -4 -120 -10
-120 -16 0 -13 237 2 244 11 5 11 7 1 12 -9 4 -13 35 -13 105 0 83 2 99 16 99
8 0 22 -6 30 -14z m1154 -96 c0 -103 -1 -110 -20 -110 -11 0 -20 -4 -20 -10 0
-6 -90 -10 -250 -10 -243 0 -250 1 -250 20 0 11 -4 20 -10 20 -6 0 -10 27 -10
60 0 33 4 60 10 60 6 0 10 14 10 30 l0 30 120 0 c73 0 120 4 120 10 0 6 57 10
150 10 l150 0 0 -110z m-560 60 c0 -16 -4 -30 -10 -30 -6 0 -10 -30 -10 -70 0
-40 4 -70 10 -70 6 0 10 -4 10 -10 0 -6 -37 -10 -90 -10 -53 0 -90 -4 -90 -10
0 -6 -60 -10 -160 -10 l-160 0 0 110 0 110 120 0 c73 0 120 4 120 10 0 6 50
10 130 10 l130 0 0 -30z m-540 -90 c0 -60 -4 -100 -10 -100 -6 0 -10 40 -10
100 0 60 4 100 10 100 6 0 10 -40 10 -100z m1926 -94 c10 -11 14 -41 14 -110
l0 -96 -90 0 c-53 0 -90 -4 -90 -10 0 -6 -63 -10 -170 -10 l-170 0 0 90 c0 53
4 90 10 90 6 0 10 9 10 20 0 19 7 20 160 20 100 0 160 4 160 10 0 16 149 13
166 -4z m194 -96 l0 -110 -80 0 -80 0 0 110 0 110 80 0 80 0 0 -110z m-2160
80 c0 -5 9 -10 20 -10 19 0 20 -7 20 -110 0 -93 -2 -110 -16 -110 -36 0 -44
25 -44 134 0 64 4 106 10 106 6 0 10 -4 10 -10z m1460 0 c0 -5 -4 -10 -10 -10
-6 0 -10 -40 -10 -100 l0 -100 -160 0 c-100 0 -160 -4 -160 -10 0 -6 -37 -10
-90 -10 l-90 0 0 110 0 110 80 0 c47 0 80 4 80 10 0 6 67 10 180 10 113 0 180
-4 180 -10z m-540 -120 l0 -110 -240 0 c-153 0 -240 -4 -240 -10 0 -5 -13 -10
-30 -10 l-30 0 0 105 c0 71 4 111 13 120 10 12 60 14 270 15 l257 0 0 -110z
m-560 -20 l0 -110 -130 0 -130 0 0 30 c0 17 -4 30 -10 30 -6 0 -10 33 -10 80
l0 80 140 0 140 0 0 -110z m1800 -200 l0 -130 -200 0 -200 0 0 100 c0 60 -4
100 -10 100 -5 0 -10 9 -10 20 0 16 7 20 30 20 17 0 30 5 30 10 0 6 67 10 180
10 l180 0 0 -130z m-2160 100 c0 -5 9 -10 20 -10 13 0 20 -7 20 -20 0 -11 5
-20 10 -20 6 0 10 -40 10 -100 0 -60 -4 -100 -10 -100 -5 0 -10 5 -10 10 0 6
-9 10 -20 10 -11 0 -20 5 -20 10 0 6 -7 10 -16 10 -35 0 -44 26 -44 124 l0 96
30 0 c17 0 30 -4 30 -10z m1180 -120 l0 -130 -270 0 -270 0 0 100 c0 60 -4
100 -10 100 -5 0 -10 9 -10 20 0 19 7 20 250 20 160 0 250 4 250 10 0 6 14 10
30 10 l30 0 0 -130z m540 100 c0 -16 5 -30 10 -30 6 0 10 -37 10 -90 l0 -90
-40 0 c-22 0 -40 -4 -40 -10 0 -6 -83 -10 -230 -10 l-230 0 0 130 0 130 260 0
260 0 0 -30z m-1120 -20 c0 -16 5 -30 10 -30 6 0 10 -40 10 -100 l0 -100 -240
0 -240 0 0 120 0 120 150 0 c93 0 150 4 150 10 0 6 33 10 80 10 l80 0 0 -30z
m-480 -90 c0 -60 -4 -100 -10 -100 -6 0 -10 40 -10 100 0 60 4 100 10 100 6 0
10 -40 10 -100z m-154 -94 c17 -17 21 -206 4 -206 -6 0 -10 27 -10 60 0 33 -4
60 -10 60 -5 0 -10 23 -10 50 0 53 3 58 26 36z m80 -40 c8 -8 14 -22 14 -30 0
-9 5 -16 10 -16 6 0 10 -30 10 -70 0 -69 -1 -70 -26 -70 -44 0 -54 20 -54 114
0 72 3 86 16 86 8 0 22 -6 30 -14z m2054 -96 l0 -110 -140 0 c-87 0 -140 -4
-140 -10 0 -6 -53 -10 -140 -10 l-140 0 0 110 0 110 60 0 c33 0 60 4 60 10 0
6 80 10 220 10 l220 0 0 -110z m60 0 c0 -103 -1 -110 -20 -110 -19 0 -20 7
-20 110 0 103 1 110 20 110 19 0 20 -7 20 -110z m-1220 10 c0 -47 -4 -80 -10
-80 -5 0 -10 -18 -10 -40 l0 -40 -220 0 c-140 0 -220 -4 -220 -10 0 -5 -22
-10 -50 -10 l-50 0 0 120 0 120 130 0 c80 0 130 4 130 10 0 6 57 10 150 10
l150 0 0 -80z m580 -30 l0 -110 -190 0 c-120 0 -190 -4 -190 -10 0 -6 -40 -10
-100 -10 l-100 0 0 40 c0 22 5 40 10 40 6 0 10 33 10 80 l0 80 280 0 280 0 0
-110z m-1160 -30 l0 -120 -110 0 -110 0 0 50 c0 28 -4 50 -10 50 -6 0 -10 30
-10 70 l0 70 120 0 120 0 0 -120z m-377 -52 c4 -10 8 -9 17 2 9 11 13 12 17 3
2 -7 18 -13 34 -13 22 0 29 -5 29 -20 0 -11 5 -20 10 -20 6 0 10 -30 10 -70 0
-38 -2 -70 -5 -70 -3 0 -30 25 -60 55 -46 45 -55 60 -55 90 0 19 -4 35 -10 35
-5 0 -10 5 -10 10 0 14 17 12 23 -2z m1897 -118 l0 -90 -310 0 -310 0 0 60 c0
33 4 60 10 60 6 0 10 9 10 20 0 20 7 20 270 20 173 0 270 4 270 10 0 6 14 10
30 10 l30 0 0 -90z m280 30 c0 -53 -2 -60 -20 -60 -11 0 -20 -4 -20 -10 0 -5
-18 -10 -40 -10 -22 0 -40 -4 -40 -10 0 -5 -22 -10 -50 -10 -27 0 -50 -4 -50
-10 0 -5 -9 -10 -20 -10 -19 0 -20 7 -20 90 l0 90 130 0 130 0 0 -60z m-900
30 c0 -5 -4 -10 -10 -10 -6 0 -10 -30 -10 -70 l0 -70 -270 0 -270 0 0 70 0 70
220 0 c140 0 220 4 220 10 0 6 27 10 60 10 33 0 60 -4 60 -10z m-580 -90 l0
-80 -240 0 -240 0 0 70 0 70 140 0 c87 0 140 4 140 10 0 6 40 10 100 10 l100
0 0 -80z m-500 -10 c0 -63 -2 -70 -20 -70 -18 0 -20 7 -20 70 0 63 2 70 20 70
18 0 20 -7 20 -70z"/>
</g>
</svg>
